<svg width="0" height="0" class="hidden"><symbol id="icon-vert" viewBox="0 0 109 32">
<path d="M27.274 16.36c0.011 2.837 1.444 5.267 4.244 5.267 2.444 0 3.18-1.089 3.712-2.302h4.57c-0.693 2.328-2.74 5.905-8.407 5.905-6.113 0-8.714-4.672-8.714-9.556 0-5.774 2.964-10.053 8.909-10.053 6.341 0 8.472 4.719 8.472 9.166 0.012 0.524-0.009 1.049-0.062 1.57l-12.723 0.001zM35.48 13.48c-0.037-2.484-1.143-4.535-3.914-4.535-2.774 0-3.932 1.909-4.181 4.535h8.096zM18.079 6.060c-2.040 6.289-3.94 11.924-4.446 14.678h-0.036c-0.44-2.282-2.057-7.891-4.101-14.678h-6.128c0.859 0 1.566 0.932 1.659 1.254l6.019 17.481h4.848l6.751-18.735h-4.565zM106.105 15.381c0 5.6-3.325 9.882-9.251 9.882-5.719 0-9.096-4.165-9.096-9.794 0-5.721 3.425-9.896 9.332-9.896 5.464 0 9.014 3.909 9.014 9.808zM92.42 15.418c0 3.79 1.737 6.227 4.556 6.227 2.867 0 4.468-2.385 4.468-6.201 0-4.036-1.616-6.252-4.542-6.252-2.803 0-4.482 2.143-4.482 6.227zM73.045 9.495v-3.482h-6.056c0.812 0 1.385 0.563 1.459 1.144 0.014 1.118 0.020 2.397 0.020 3.963v13.707h4.577v-8.517c0-5.023 2.345-6.834 6.174-6.808v-3.481c-3.189 0.043-5.287 1.191-6.174 3.474zM47.096 9.495v-3.482h-6.056c0.812 0 1.385 0.563 1.459 1.144 0.013 1.118 0.020 2.397 0.020 3.963v13.707h4.577v-8.517c0-5.023 2.346-6.834 6.174-6.808v-3.481c-3.189 0.043-5.287 1.191-6.174 3.474zM81.072 6.012v18.812h4.577v-18.812h-4.577zM85.638 0h-4.566v5.218c0.003 0 0.005 0 0.008 0 1.206 0.001 2.363-0.476 3.218-1.325s1.336-2.001 1.338-3.204l0.002-0.689zM65.864 9.502v-3.49h-3.865v-0.004l-7.614 0.004v3.49h3.037v10.53c0 3.236 1.248 5.049 4.688 5.049 1.006 0 2.329-0.022 3.29-0.355v-3.201c-0.446 0.067-0.896 0.098-1.347 0.092-1.612 0-2.055-0.684-2.055-2.246v-9.868h3.866zM61.976 0.689v-0.689h-4.565v5.218c0.003 0 0.005 0 0.008 0 1.206 0 2.363-0.476 3.218-1.325s1.336-2.001 1.339-3.204z"></path>
</symbol><symbol id="icon-happ" viewBox="0 0 99 32">
<path d="M65.965 16.829c-0.391 0.116-0.826 0.178-1.314 0.178-0.439 0-0.86-0.077-1.266-0.227s-0.768-0.357-1.087-0.617c-0.319-0.26-0.58-0.573-0.773-0.935s-0.309-0.761-0.343-1.2h9.236c-0.039-1.692-0.121-2.858-0.415-3.672s-0.705-1.499-1.227-2.043c-0.522-0.545-1.145-0.959-1.86-1.239s-1.497-0.414-2.343-0.414c-0.913 0-1.758 0.154-2.541 0.467s-1.464 0.747-2.038 1.311c-0.575 0.564-1.024 1.243-1.352 2.043s-0.493 1.687-0.493 2.665c0 0.993 0.164 1.88 0.493 2.665 0.328 0.781 0.782 1.446 1.367 1.981 0.584 0.54 1.27 0.954 2.063 1.248s1.662 0.443 2.608 0.443c1.010 0 1.908-0.169 2.705-0.487-0.816-0.405-1.381-1.214-1.42-2.169zM62.236 9.75c0.633-0.545 1.406-0.819 2.314-0.819 0.488 0 0.913 0.082 1.28 0.241 0.362 0.159 0.662 0.376 0.898 0.646s0.411 0.578 0.517 0.935c0.111 0.352 0.164 0.723 0.164 1.108h-6.226c0.068-0.863 0.42-1.566 1.053-2.111z"></path>
<path d="M68.51 18.261c0.856 0 1.551-0.693 1.551-1.547s-0.694-1.547-1.551-1.547c-0.856 0-1.55 0.693-1.55 1.547s0.694 1.547 1.55 1.547z"></path>
<path d="M26.863 9.938c-0.159-0.607-0.444-1.152-0.85-1.639s-0.956-0.882-1.657-1.186c-0.7-0.304-1.589-0.453-2.671-0.453-0.729 0-1.454 0.101-2.169 0.304 0.609 0.467 1.010 1.195 1.010 2.019 0 0.053-0.014 0.101-0.014 0.149 0.299-0.063 0.609-0.096 0.923-0.096 0.758 0 1.41 0.183 1.961 0.545 0.546 0.361 0.821 0.921 0.821 1.677v0.304c-0.947 0-1.908 0.048-2.898 0.14-0.985 0.092-1.884 0.284-2.695 0.569s-1.473 0.699-1.985 1.239c-0.517 0.54-0.773 1.263-0.773 2.169 0 0.708 0.15 1.301 0.444 1.778 0.295 0.482 0.667 0.868 1.111 1.162s0.937 0.506 1.468 0.631c0.531 0.125 1.043 0.188 1.531 0.188 0.86 0 1.628-0.174 2.304-0.516 0.676-0.347 1.164-0.786 1.468-1.325h0.077v1.542h2.835v-7.374c0-0.612-0.082-1.219-0.242-1.827zM24.216 14.029c0 0.959-0.27 1.716-0.811 2.27s-1.333 0.834-2.377 0.834c-0.251 0-0.507-0.024-0.758-0.077s-0.483-0.135-0.681-0.251c-0.203-0.116-0.367-0.275-0.493-0.467s-0.188-0.434-0.188-0.718c0-0.453 0.15-0.81 0.454-1.075 0.304-0.26 0.681-0.463 1.14-0.607 0.454-0.145 0.952-0.236 1.493-0.28s1.053-0.063 1.546-0.063h0.681v0.434h-0.005z"></path>
<path d="M17.966 10.521c0.855 0 1.551-0.694 1.551-1.547s-0.696-1.547-1.551-1.547-1.551 0.694-1.551 1.547c0 0.853 0.696 1.547 1.551 1.547z"></path>
<path d="M14.343 9.735c-0.169-0.588-0.435-1.108-0.797-1.566-0.362-0.453-0.826-0.819-1.391-1.099s-1.246-0.414-2.038-0.414c-0.454 0-0.879 0.058-1.266 0.178-0.386 0.116-0.734 0.275-1.038 0.467s-0.57 0.414-0.797 0.655c-0.227 0.246-0.401 0.492-0.517 0.747h-0.048v-5.123c-0.43 0.323-0.956 0.521-1.531 0.521-0.565 0-1.082-0.188-1.502-0.496v15.523h3.038v-6.617c0-0.405 0.058-0.8 0.179-1.186 0.116-0.386 0.295-0.737 0.531-1.046 0.237-0.313 0.531-0.559 0.884-0.747 0.353-0.183 0.778-0.28 1.266-0.28s0.879 0.101 1.179 0.304c0.295 0.202 0.522 0.458 0.681 0.771s0.266 0.655 0.314 1.036 0.077 0.747 0.077 1.099v6.665h3.038v-7.576c-0.005-0.622-0.092-1.224-0.261-1.817z"></path>
<path d="M4.919 3.094c0.855 0 1.551-0.694 1.551-1.547s-0.696-1.547-1.551-1.547c-0.855 0-1.551 0.694-1.551 1.547s0.696 1.547 1.551 1.547z"></path>
<path d="M80.601 15.518c0.42-0.299 0.932-0.482 1.488-0.482 0.585 0 1.116 0.202 1.551 0.535v-4.014c0-0.622-0.082-1.229-0.251-1.817s-0.435-1.108-0.797-1.566c-0.362-0.453-0.826-0.819-1.391-1.099s-1.246-0.414-2.038-0.414c-0.913 0-1.7 0.231-2.367 0.694s-1.135 0.998-1.406 1.605h-0.053v-1.942h-2.884v12.116h3.038v-6.67c0-0.405 0.058-0.805 0.179-1.2 0.116-0.395 0.29-0.747 0.517-1.046 0.227-0.304 0.517-0.549 0.874-0.747 0.353-0.193 0.778-0.289 1.266-0.289s0.879 0.101 1.179 0.304c0.295 0.202 0.526 0.458 0.696 0.771s0.28 0.66 0.329 1.046c0.048 0.386 0.077 0.757 0.077 1.108v3.109h-0.005z"></path>
<path d="M82.089 19.138c0.856 0 1.551-0.693 1.551-1.547s-0.694-1.547-1.551-1.547c-0.856 0-1.551 0.693-1.551 1.547s0.694 1.547 1.551 1.547z"></path>
<path d="M41.707 10.521c-0.285-0.776-0.691-1.446-1.212-2.019s-1.15-1.022-1.874-1.349-1.517-0.492-2.377-0.492c-0.555 0-1.058 0.063-1.507 0.188s-0.85 0.284-1.203 0.482c-0.353 0.193-0.652 0.414-0.898 0.655-0.246 0.246-0.444 0.482-0.594 0.718h-0.077v-1.692h-2.908v14.665c0.43-0.318 0.952-0.516 1.526-0.516 0.565 0 1.082 0.188 1.507 0.501v-4.149h0.048c0.386 0.607 0.942 1.084 1.657 1.441 0.715 0.352 1.507 0.53 2.367 0.53 0.927 0 1.758-0.173 2.492-0.516 0.734-0.347 1.357-0.81 1.874-1.388 0.512-0.578 0.913-1.263 1.188-2.043 0.28-0.781 0.415-1.619 0.415-2.511 0.005-0.901-0.14-1.735-0.425-2.506zM39.379 14.434c-0.145 0.472-0.357 0.892-0.647 1.263-0.285 0.371-0.652 0.675-1.087 0.911-0.44 0.236-0.952 0.352-1.546 0.352-0.555 0-1.053-0.116-1.493-0.342s-0.816-0.525-1.125-0.896c-0.314-0.371-0.551-0.786-0.71-1.248s-0.242-0.93-0.242-1.402c0-0.472 0.077-0.94 0.242-1.412 0.159-0.472 0.396-0.892 0.71-1.263s0.686-0.675 1.125-0.911c0.44-0.236 0.937-0.352 1.493-0.352 0.589 0 1.106 0.116 1.546 0.342s0.802 0.525 1.087 0.896c0.285 0.371 0.502 0.786 0.647 1.248s0.217 0.93 0.217 1.402c0 0.468-0.072 0.94-0.217 1.412z"></path>
<path d="M30.583 25.263c0.856 0 1.55-0.693 1.55-1.547s-0.694-1.547-1.55-1.547c-0.856 0-1.551 0.693-1.551 1.547s0.694 1.547 1.551 1.547z"></path>
<path d="M56.367 10.521c-0.285-0.776-0.691-1.446-1.212-2.019s-1.15-1.022-1.874-1.349-1.517-0.492-2.377-0.492c-0.556 0-1.058 0.063-1.507 0.188s-0.85 0.284-1.203 0.482c-0.353 0.193-0.652 0.414-0.898 0.655-0.246 0.246-0.444 0.482-0.594 0.718h-0.077v-1.692h-2.908v14.665c0.43-0.318 0.952-0.516 1.526-0.516 0.565 0 1.082 0.188 1.507 0.501v-4.149h0.048c0.386 0.607 0.942 1.084 1.657 1.441 0.715 0.352 1.507 0.53 2.367 0.53 0.927 0 1.758-0.173 2.492-0.516 0.734-0.347 1.357-0.81 1.874-1.388 0.512-0.578 0.913-1.263 1.188-2.043 0.28-0.781 0.415-1.619 0.415-2.511 0.005-0.901-0.14-1.735-0.425-2.506zM54.039 14.434c-0.145 0.472-0.357 0.892-0.647 1.263-0.285 0.371-0.652 0.675-1.087 0.911-0.44 0.236-0.952 0.352-1.546 0.352-0.556 0-1.053-0.116-1.493-0.342s-0.816-0.525-1.125-0.896c-0.314-0.371-0.551-0.786-0.71-1.248s-0.242-0.93-0.242-1.402c0-0.472 0.077-0.94 0.242-1.412 0.159-0.472 0.396-0.892 0.71-1.263s0.686-0.675 1.125-0.911c0.44-0.236 0.937-0.352 1.493-0.352 0.589 0 1.106 0.116 1.546 0.342s0.802 0.525 1.087 0.896c0.285 0.371 0.502 0.786 0.647 1.248s0.217 0.93 0.217 1.402c0 0.468-0.072 0.94-0.217 1.412z"></path>
<path d="M45.243 25.263c0.856 0 1.551-0.693 1.551-1.547s-0.694-1.547-1.551-1.547c-0.856 0-1.55 0.693-1.55 1.547s0.694 1.547 1.55 1.547z"></path>
<path d="M94.029 10.198c0.86 0 1.55-0.694 1.55-1.547s-0.696-1.547-1.55-1.547c-0.86 0-1.555 0.694-1.555 1.547s0.7 1.547 1.555 1.547z"></path>
<path d="M91.464 8.646c0-0.631 0.237-1.2 0.618-1.648h-6.386v2.429h5.903c-0.083-0.246-0.136-0.506-0.136-0.781z"></path>
<path d="M94.155 11.195c-0.044 0-0.083 0.014-0.125 0.014-1.039 0-1.928-0.617-2.328-1.499l-4.975 5.325c0.072-0.005 0.14-0.019 0.212-0.019 1 0 1.86 0.578 2.28 1.412l4.936-5.234z"></path>
<path d="M89.33 16.665c0.106 0.284 0.173 0.588 0.173 0.906 0 0.598-0.212 1.137-0.556 1.571h6.941v-2.477h-6.559z"></path>
<path d="M86.938 16.019c-0.86 0-1.55 0.694-1.55 1.552s0.696 1.547 1.55 1.547c0.86 0 1.55-0.694 1.55-1.547 0-0.858-0.696-1.552-1.55-1.552z"></path>
</symbol>
<symbol id="icon-kater" viewBox="0 0 111 32">
<path d="M102.264 10.262c1.022 0.428 1.918 1.001 2.675 1.712 0.758 0.717 1.353 1.55 1.78 2.508s0.637 1.966 0.637 3.027c0 1.085-0.211 2.104-0.637 3.063s-1.016 1.797-1.78 2.508c-0.757 0.717-1.653 1.278-2.675 1.694s-2.135 0.621-3.331 0.621c-1.197 0-2.309-0.205-3.331-0.621s-1.917-0.983-2.675-1.694c-0.758-0.718-1.353-1.55-1.78-2.508s-0.637-1.978-0.637-3.063c0-1.061 0.21-2.068 0.637-3.027s1.016-1.797 1.78-2.508c0.758-0.717 1.654-1.284 2.675-1.712s2.135-0.639 3.331-0.639 2.303 0.217 3.331 0.639zM101.037 24.323c0.505-0.428 0.878-0.989 1.125-1.676 0.24-0.693 0.391-1.489 0.451-2.388s0.084-1.809 0.084-2.737c0-0.922-0.030-1.827-0.084-2.719-0.060-0.886-0.205-1.682-0.451-2.37-0.241-0.693-0.614-1.254-1.125-1.682-0.504-0.428-1.208-0.639-2.104-0.639s-1.599 0.211-2.104 0.639c-0.505 0.428-0.877 0.989-1.124 1.682-0.241 0.693-0.391 1.483-0.451 2.37s-0.084 1.797-0.084 2.719c0 0.923 0.030 1.833 0.084 2.737 0.061 0.898 0.205 1.694 0.451 2.388 0.24 0.693 0.613 1.254 1.124 1.676 0.505 0.428 1.208 0.639 2.104 0.639s1.6-0.217 2.104-0.639z"></path>
<path d="M63.36 18.028c-1.413 0-2.556 1.146-2.556 2.563 0 1.133 0.734 2.092 1.75 2.43 0.012 0 0.018 0.006 0.024 0.006 0.15 0.048 0.301 0.078 0.457 0.102 0.283 0.048 0.379 0.193 0.361 0.386-0.042 0.296-0.379 0.687-0.8 0.929-0.631 0.344-1.413 0.518-2.333 0.518-1.034 0-1.84-0.217-2.417-0.657s-1.010-1.001-1.311-1.682c-0.301-0.681-0.481-1.441-0.553-2.285s-0.102-1.682-0.102-2.508v-1.556h10.186c0-1.176-0.204-2.189-0.619-3.027-0.415-0.844-0.944-1.525-1.587-2.062-0.643-0.531-1.371-0.922-2.177-1.176s-1.611-0.38-2.417-0.38c-1.13 0-2.183 0.223-3.157 0.675-0.98 0.452-1.828 1.037-2.556 1.767s-1.293 1.562-1.708 2.508c-0.415 0.947-0.619 1.917-0.619 2.906 0 1.248 0.216 2.357 0.655 3.34s1.040 1.815 1.81 2.49c0.77 0.681 1.672 1.2 2.712 1.556 1.034 0.356 2.153 0.537 3.349 0.537 1.010 0 1.876-0.145 2.592-0.434s1.311-0.645 1.798-1.073c0.313-0.271 0.571-0.567 0.8-0.868 0.006-0.012 0.018-0.024 0.024-0.036 0.036-0.048 0.072-0.096 0.108-0.145 0.132-0.187 0.259-0.392 0.355-0.609 0.006-0.006 0.006-0.018 0.006-0.024 0.090-0.175 0.168-0.35 0.235-0.512 0.012-0.030 0.030-0.060 0.042-0.090 0.048-0.109 0.084-0.223 0.12-0.344 0.006-0.024 0.018-0.048 0.024-0.072 0-0.006-0.006-0.006-0.006-0.012 0.006-0.012 0.006-0.030 0.006-0.042s0.006-0.018 0.012-0.030h-0.006c0.036-0.169 0.060-0.344 0.060-0.525 0-1.417-1.148-2.563-2.562-2.563zM56.006 13.898c0.054-0.657 0.192-1.272 0.397-1.833 0.204-0.567 0.523-1.031 0.95-1.405 0.427-0.368 1.028-0.555 1.81-0.555 0.553 0 0.986 0.127 1.293 0.38 0.313 0.253 0.535 0.567 0.673 0.935s0.217 0.742 0.24 1.109c0.024 0.368 0.036 0.681 0.036 0.935v2.321h-5.526c0.030-0.597 0.066-1.23 0.126-1.887z"></path>
<path d="M87.88 24.473v-14.362h-5.261v0.482h1.046v13.88h-1.046v0.488h6.308v-0.488h-1.047z"></path>
<path d="M85.006 5.161c0 0.006 0 0.006 0 0 0.006 0.006 0.012 0.006 0.024 0.006 0.15 0.048 0.301 0.078 0.456 0.103 0.589 0.096 0.397 0.651-0.072 1.073-0.103 0.090-0.006 0.253 0.12 0.205 0.734-0.247 2.027-1.2 2.622-2.792 0.048-0.109 0.084-0.223 0.12-0.344 0.007-0.024 0.019-0.048 0.024-0.072 0-0.006-0.006-0.006-0.006-0.012 0.048-0.193 0.072-0.398 0.072-0.603 0-1.417-1.143-2.563-2.556-2.563s-2.556 1.146-2.556 2.563c0 1.14 0.734 2.098 1.75 2.436z"></path>
<path d="M19.916 24.473l-7.907-10.208-0.331-0.416-2.91 2.665h-0.174v-16.515h-5.225v0.482h1.010v23.991h-1.010v0.488h6.097v-0.488h-0.872v-7.476h0.174l5.832 7.476h-2.483v0.488h9.146v-0.488h-1.347z"></path>
<path d="M15.394 15.134c-0.006 0 0 0 0 0 0.006 0.006 0.012 0.006 0.024 0.006 0.15 0.048 0.301 0.078 0.457 0.102 0.589 0.096 0.397 0.651-0.072 1.073-0.102 0.090-0.006 0.253 0.12 0.205 0.734-0.247 2.026-1.2 2.622-2.792 0.048-0.108 0.084-0.223 0.12-0.344 0.006-0.024 0.018-0.048 0.024-0.072 0-0.006-0.006-0.006-0.006-0.012 0.048-0.193 0.072-0.398 0.072-0.603 0-1.417-1.142-2.563-2.556-2.563s-2.556 1.146-2.556 2.563c0 1.14 0.734 2.098 1.75 2.436z"></path>
<path d="M35.093 24.473c0-0.024 0-9.967 0-9.967 0-0.971-0.168-1.773-0.499-2.406-0.337-0.633-0.782-1.14-1.347-1.507s-1.233-0.621-2.002-0.76c-0.042-0.006-0.084-0.012-0.126-0.018v-0.006c-2.868-0.609-4.63-0.187-5.358 0.006-0.8 0.217-2.105 0.82-2.91 2.098-0.072 0.096-0.319 0.537-0.421 0.959-0.319 1.381 0.595 2.743 1.978 3.033s2.736-0.597 3.025-1.984c0.228-1.109-0.289-2.201-1.215-2.737-0.012-0.006-0.018-0.006-0.024-0.012-0.132-0.078-0.277-0.139-0.427-0.193-0.409-0.157-0.355-0.549-0.018-0.748 0.379-0.223 1.497-0.452 3.283-0.265 0.631 0.066 1.148 0.35 1.407 0.778 0.301 0.507 0.451 1.073 0.451 1.694v4.938l-3.211 0.006c-0.661 0-1.966 0.060-2.988 0.38-0.547 0.175-1.022 0.452-1.449 0.76-0.427 0.314-0.77 0.693-1.034 1.14-0.265 0.452-0.397 1.146-0.397 1.815 0 0.645 0.15 1.314 0.451 1.767s0.758 0.802 1.233 1.079c0.938 0.555 2.832 0.633 3.385 0.633 0.102 0 0.204 0 0.313 0h8.893v-0.488h-0.992v0.006zM30.878 24.449c-0.012 0-1.906 0-2.207 0-0.529 0-1.155-0.096-1.455-0.338s-0.523-0.537-0.673-0.88-0.241-0.705-0.277-1.073c-0.036-0.368-0.054-0.693-0.054-0.971 0-0.693 0.108-1.718 0.331-2.152 0.024-0.042 0.048-0.090 0.078-0.139 0.403-0.651 1.142-1.025 1.912-1.025h2.345v6.578z"></path>
<path d="M81.272 12.879c-0.096-0.428-0.349-0.862-0.421-0.959-0.806-1.278-2.195-1.966-2.91-2.098-2.081-0.386-3.788-0.090-4.78 0.289h-4.973v0.482h0.98v13.88h-0.98v0.482h6.65v-0.482h-1.461l-0.066-13.976c1.293-0.537 3.536-0.633 4.636-0.265 0.373 0.121 0.391 0.591-0.018 0.748-0.15 0.054-0.295 0.115-0.427 0.193-0.006 0.006-0.018 0.006-0.024 0.012-0.926 0.543-1.449 1.628-1.215 2.737 0.289 1.387 1.642 2.273 3.025 1.984 1.389-0.283 2.303-1.652 1.984-3.027z"></path>
<path d="M44.677 13.928c0.289 1.387 1.642 2.273 3.025 1.984s2.297-1.658 1.978-3.033c-0.096-0.428-0.349-0.862-0.421-0.959-0.806-1.278-2.008-1.917-2.91-2.098-1.191-0.235-2.261-0.235-3.145-0.121v-9.792h-0.391c0 0-0.547 2.81-3.812 2.81v7.82c-1.016 0.102-2.068 0.048-2.718-0.169-0.018-0.006-0.030-0.018-0.048-0.024v0.422c0.018 0.006 0.036 0.012 0.054 0.012 0.998 0.199 1.912 0.229 2.706 0.169v10.304c0 0.416 0.024 0.868 0.066 1.351 0.048 0.482 0.222 0.934 0.535 1.351s0.794 0.76 1.449 1.037c0.655 0.277 1.581 0.416 2.778 0.416 0.439 0 0.896-0.042 1.383-0.121 0.481-0.084 0.938-0.247 1.365-0.5s0.806-0.615 1.136-1.091c0.331-0.47 0.571-1.103 0.71-1.887l-0.517-0.103c-0.090 0.344-0.21 0.705-0.361 1.073s-0.343 0.699-0.571 0.989c-0.229 0.289-0.499 0.525-0.812 0.712s-0.685 0.277-1.124 0.277c-0.391 0-0.71-0.066-0.95-0.205s-0.427-0.332-0.553-0.573c-0.126-0.241-0.211-0.512-0.259-0.814s-0.066-0.621-0.066-0.971v-12.071c1.142-0.169 2.411-0.133 3.157 0.115 0.373 0.121 0.391 0.591-0.018 0.748-0.15 0.054-0.295 0.115-0.427 0.193-0.006 0.006-0.018 0.006-0.024 0.012-0.92 0.537-1.443 1.628-1.215 2.737z"></path>
</symbol><symbol id="icon-audr" viewBox="0 0 88 32">
<path d="M20.443 13.316c-0.756-0.16-3.009-0.724-5.196 0.757-0.002-0.001-0.005-0.002-0.007-0.002-0.215 0.139-0.438 0.264-0.668 0.375-0.693 0.32-1.448 0.486-2.211 0.486s-1.518-0.166-2.211-0.486c-0.676-0.317-1.285-0.759-1.797-1.303-0.515-0.55-0.928-1.188-1.218-1.884-0.296-0.711-0.449-1.475-0.449-2.245s0.153-1.534 0.449-2.245c0.286-0.698 0.699-1.337 1.218-1.884 0.514-0.538 1.123-0.976 1.797-1.292 0.693-0.32 1.448-0.486 2.211-0.486s1.518 0.166 2.211 0.486c0.674 0.315 1.283 0.753 1.797 1.292 0.519 0.547 0.932 1.186 1.218 1.884 0.297 0.711 0.449 1.474 0.449 2.245s-0.153 1.534-0.449 2.245c-0.041 0.097-0.089 0.19-0.135 0.284 1.165-0.108 2.339-0.048 3.487 0.179 0.278-0.877 0.418-1.793 0.414-2.714 0.006-1.202-0.236-2.392-0.711-3.496-0.916-2.16-2.632-3.88-4.786-4.799-1.108-0.477-2.302-0.72-3.507-0.711-1.198-0.007-2.384 0.235-3.484 0.711-2.155 0.919-3.87 2.639-4.786 4.799-0.475 1.104-0.717 2.294-0.711 3.496-0.009 1.206 0.233 2.401 0.711 3.508 0.921 2.154 2.636 3.869 4.786 4.787 1.1 0.476 2.286 0.718 3.483 0.711 1.206 0.009 2.4-0.233 3.507-0.711 0.312-0.138 0.617-0.292 0.913-0.461 0.034-0.013 0.073-0.028 0.102-0.042 0.686-0.324 1.137-0.512 1.925-0.486 1.533 0.051 1.879 0.8 1.964 1.41h3.827c0-1.048-0.892-3.721-4.143-4.407zM37.187 4.844h-3.213v7.25h0.003c-0.005 0.717-0.292 1.402-0.8 1.907s-1.193 0.788-1.908 0.788-1.401-0.283-1.908-0.788c-0.507-0.505-0.795-1.191-0.8-1.907h0.003v-7.25h-3.214v7.25c0 1.574 0.623 3.083 1.733 4.196s2.615 1.738 4.184 1.738c1.57 0 3.075-0.625 4.184-1.738s1.733-2.622 1.733-4.196v-7.25h-0zM80.997 4.844v4.327h0.002c-0.002 0.38-0.084 0.755-0.24 1.1s-0.385 0.654-0.669 0.905l0.007 0.001c1.698 0.253 2.962 1.445 2.98 1.462 0.735-1.006 1.133-2.22 1.134-3.467h0.001v-4.327h-3.214zM84.211 17.785c0-0.006 0-0.011 0-0.016v-0.023h-0.001c-0.004-0.802-0.173-1.595-0.494-2.33s-0.79-1.395-1.376-1.941l0.004-0.003c-0.499-0.451-1.596-1.511-4.050-1.599-1.492-0.054-2.703-1.209-2.706-2.701h0.003v-4.327h-3.213v4.31c-0.001 0.003-0.001 0.007-0.001 0.010 0.003 1.54 0.603 3.018 1.674 4.122s2.529 1.745 4.064 1.788c0.037 0.001 0.205 0.007 0.218 0.007 0.703 0.009 1.375 0.293 1.873 0.791s0.782 1.171 0.792 1.877v1.591h0.003c0 0.002 0 0.003 0 0.005-0.005 0.717-0.293 1.402-0.8 1.907s-1.193 0.788-1.908 0.788-1.401-0.283-1.908-0.788c-0.507-0.505-0.795-1.191-0.8-1.907 0-0.006 0.002-0.819 0.002-0.824 0 0-3.212 0.011-3.212 0.016-0.385 4 2.65 6.727 5.918 6.727 1.568 0.002 3.072-0.621 4.182-1.731s1.734-2.617 1.736-4.188c0-0.002 0-0.005 0-0.007v-1.539c0-0.004 0-0.008 0-0.013zM49.638 19.951c-0.143 0.48-0.372 0.93-0.677 1.328-0.309 0.396-0.698 0.722-1.142 0.956-0.514 0.245-1.077 0.372-1.646 0.372s-1.132-0.127-1.646-0.372c-0.444-0.234-0.833-0.56-1.141-0.956-0.305-0.397-0.535-0.847-0.677-1.328-0.141-0.462-0.215-0.941-0.221-1.423h-3.242c-0.005 0.927 0.179 1.845 0.542 2.698 0.343 0.805 0.844 1.532 1.473 2.138 0.637 0.604 1.386 1.078 2.204 1.395 1.743 0.673 3.673 0.673 5.416 0 0.818-0.316 1.567-0.79 2.204-1.395 0.629-0.607 1.13-1.334 1.474-2.138 0.362-0.853 0.546-1.771 0.541-2.698h-3.241c-0.006 0.483-0.081 0.962-0.221 1.423zM54.628 4.934c-4.764-0.058-5.059 4.394-4.859 5.315h-0.013c0.068 0.317 0.104 0.64 0.108 0.965-0.001 0.504-0.077 1.006-0.225 1.487-0.143 0.48-0.372 0.93-0.677 1.328-0.309 0.396-0.698 0.722-1.142 0.956-0.515 0.245-1.077 0.372-1.646 0.372s-1.132-0.127-1.646-0.372c-0.443-0.234-0.832-0.56-1.141-0.956-0.305-0.397-0.535-0.847-0.677-1.328-0.148-0.482-0.224-0.983-0.226-1.488 0.001-0.5 0.077-0.997 0.226-1.474 0.145-0.475 0.374-0.921 0.677-1.314 0.307-0.394 0.697-0.716 1.142-0.943 0.517-0.236 1.078-0.358 1.646-0.358s1.129 0.122 1.646 0.358c0.349 0.186 0.663 0.43 0.929 0.723 0.010-0.046 0.013-0.094 0.025-0.139 0.153-0.667 0.443-1.296 0.85-1.846 0.161-0.211 0.343-0.404 0.544-0.578-0.405-0.26-0.836-0.476-1.286-0.644-1.75-0.637-3.667-0.637-5.416 0-0.818 0.299-1.567 0.759-2.204 1.354-0.628 0.597-1.13 1.315-1.473 2.112-0.372 0.868-0.558 1.804-0.544 2.749-0.012 0.949 0.173 1.889 0.544 2.762 0.343 0.804 0.844 1.532 1.473 2.138 0.637 0.604 1.386 1.078 2.204 1.395 1.743 0.673 3.673 0.673 5.416 0 0.818-0.316 1.567-0.79 2.204-1.395 0.629-0.607 1.13-1.334 1.474-2.138 0.371-0.873 0.556-1.813 0.544-2.762 0-0.174-0.013-0.341-0.024-0.51l0.019 0.003v-0.177c0.001-0.329 0.027-0.658 0.080-0.983 0.049-0.325 0.153-0.639 0.306-0.93 0.151-0.284 0.376-0.523 0.651-0.69 0.316-0.175 0.672-0.264 1.034-0.257h1.515v-2.737l-2.055 0.002zM70.369 8.4c-0.274-0.797-0.711-1.528-1.284-2.145-0.545-0.572-1.209-1.015-1.946-1.297-0.782-0.297-1.613-0.445-2.449-0.437-0.91-0.008-1.813 0.158-2.661 0.49-0.802 0.309-1.532 0.781-2.142 1.388s-1.089 1.333-1.405 2.134c-0.353 0.888-0.529 1.837-0.516 2.794-0.016 0.957 0.16 1.907 0.516 2.794 0.321 0.788 0.809 1.497 1.43 2.078 0.626 0.576 1.359 1.021 2.158 1.311 0.874 0.317 1.798 0.474 2.727 0.463 1.798 0.028 3.543-0.616 4.894-1.806l-1.733-2.052c-0.277 0.285-1.031 0.749-1.175 0.826-0.547 0.292-1.218 0.437-2.012 0.437-0.452 0.001-0.9-0.079-1.324-0.239-0.412-0.152-0.797-0.371-1.138-0.648-0.332-0.269-0.607-0.602-0.807-0.98-0.206-0.389-0.328-0.818-0.357-1.258-0.069-0.757-0.069-1.52 0-2.277 0.024-0.424 0.134-0.839 0.323-1.219s0.453-0.718 0.776-0.992c0.673-0.578 1.537-0.885 2.423-0.862 0.458-0.010 0.914 0.075 1.337 0.252 0.354 0.149 0.67 0.374 0.927 0.66s0.446 0.626 0.556 0.995c0.116 0.377 0.174 0.77 0.172 1.165h-5.425v2.278h8.576c0.018-0.141 0.027-0.282 0.027-0.424v-0.423c0.020-1.021-0.137-2.038-0.464-3.006z"></path>
</symbol>
</svg>